<svg width="14" height="14" viewBox="0 0 14 14" fill="none" xmlns="http://www.w3.org/2000/svg">
<g clip-path="url(#clip0_7_39)">
<path d="M3.19669 1.16177C3.14503 1.09532 3.07983 1.04063 3.00541 1.00132C2.93099 0.962005 2.84906 0.938978 2.76506 0.933764C2.68106 0.92855 2.59691 0.941269 2.51821 0.971076C2.4395 1.00088 2.36804 1.0471 2.30856 1.10664L1.40381 2.01227C0.981185 2.43577 0.825435 3.03514 1.01006 3.56102C1.77633 5.73766 3.02282 7.71385 4.65706 9.34302C6.28625 10.9772 8.26243 12.2237 10.4391 12.99C10.9649 13.1746 11.5643 13.0189 11.9878 12.5963L12.8926 11.6915C12.9521 11.632 12.9983 11.5606 13.0281 11.4819C13.0579 11.4032 13.0707 11.319 13.0654 11.235C13.0602 11.151 13.0372 11.0691 12.9979 10.9947C12.9586 10.9202 12.9039 10.855 12.8374 10.8034L10.8188 9.23364C10.7478 9.17859 10.6653 9.14037 10.5773 9.12188C10.4894 9.10338 10.3985 9.1051 10.3113 9.12689L8.39506 9.60552C8.13928 9.66945 7.8713 9.66606 7.61722 9.59567C7.36314 9.52529 7.13162 9.39032 6.94519 9.20389L4.79619 7.05402C4.60961 6.86768 4.47447 6.63619 4.40393 6.38211C4.3334 6.12802 4.32987 5.86 4.39369 5.60414L4.87319 3.68789C4.89498 3.60074 4.89669 3.50978 4.8782 3.42186C4.85971 3.33395 4.82149 3.25138 4.76644 3.18039L3.19669 1.16177ZM1.64794 0.446895C1.80106 0.293726 1.98501 0.174884 2.18758 0.0982609C2.39015 0.0216379 2.60671 -0.011013 2.82287 0.00247625C3.03903 0.0159655 3.24984 0.0752862 3.44132 0.176499C3.63279 0.277713 3.80055 0.418502 3.93344 0.58952L5.50319 2.60727C5.79106 2.97739 5.89256 3.45952 5.77881 3.91452L5.30019 5.83077C5.27544 5.93002 5.27678 6.03398 5.30407 6.13257C5.33136 6.23115 5.38367 6.321 5.45594 6.39339L7.60581 8.54327C7.67829 8.61568 7.76829 8.66808 7.86704 8.69538C7.96579 8.72267 8.06993 8.72393 8.16931 8.69902L10.0847 8.22039C10.3092 8.16425 10.5436 8.15989 10.7701 8.20764C10.9965 8.25539 11.2092 8.354 11.3919 8.49602L13.4097 10.0658C14.1351 10.6301 14.2016 11.702 13.5523 12.3504L12.6476 13.2551C12.0001 13.9026 11.0323 14.187 10.1302 13.8694C7.82122 13.057 5.7248 11.7351 3.99644 10.0019C2.26331 8.27378 0.941468 6.17767 0.128935 3.86902C-0.187814 2.96777 0.0965605 1.99914 0.74406 1.35164L1.64881 0.446895H1.64794Z" fill="#D4C291"/>
</g>
<defs>
<clipPath id="clip0_7_39">
<rect width="14" height="14" fill="white"/>
</clipPath>
</defs>
</svg>
